#N canvas 3 55 1207 679 10;
#X obj 257 109 r jblr.to.monome;
#X obj 258 393 s monome.to.jblr;
#X obj 482 49 loadbang;
#X obj 541 81 closebang;
#X msg 482 143 /monome/grid/led/all 0;
#X obj 482 80 del 3500;
#X obj 482 105 t b b;
#X msg 507 234 /sys/rotation \$1;
#X text 541 48 initialize monome;
#X text 631 139 clear grid;
#X text 621 234 rotate grid by n degrees (first argument to [jblr.monome])
;
#X obj 507 207 pack \$1;
#X obj 251 227 apcnome, f 15;
#X obj 326 256 route list;
#X obj 188 319 midiout 0;
#X obj 353 137 notein 1;
#X obj 353 159 pack;
#X obj 270 147 print J2M;
#X obj 324 344 print M2J;
#X msg 472 410 /monome/grid/led/level/row 0 0 0 2 4 6 8 10 12 14;
#X connect 0 0 12 0;
#X connect 0 0 17 0;
#X connect 2 0 5 0;
#X connect 3 0 4 0;
#X connect 4 0 12 0;
#X connect 5 0 6 0;
#X connect 6 0 4 0;
#X connect 6 1 11 0;
#X connect 11 0 7 0;
#X connect 12 0 14 0;
#X connect 12 1 13 0;
#X connect 13 0 1 0;
#X connect 13 0 18 0;
#X connect 15 0 16 0;
#X connect 15 1 16 1;
#X connect 16 0 12 1;
#X connect 19 0 12 0;
