#N canvas 0 22 1194 809 10;
#X obj 493 -13629 sel 1 0;
#X msg 327 -13559 stop;
#X text 542 -13286 recording length (ms);
#X obj 498 -13435 realtime;
#X text 412 -13437 record start;
#X text 563 -13438 record end;
#X obj 498 -13282 outlet;
#X obj 316 -13509 tabwrite~ \$1;
#X obj 956 -13753 table \$1 2e+06;
#X obj 523 -13377 var \$1_length;
#X obj 730 -13450 s \$1_recordstart;
#X obj 832 -13450 s \$1_recordstop;
#X text 316 -13688 audio in;
#X text 489 -13691 1= record \, 0=stop;
#X obj 316 -13667 inlet~ audio;
#X obj 493 -13666 inlet record/stop;
#X connect 0 0 3 0;
#X connect 0 0 7 0;
#X connect 0 0 10 0;
#X connect 0 1 1 0;
#X connect 0 1 3 1;
#X connect 0 1 11 0;
#X connect 1 0 7 0;
#X connect 3 0 9 0;
#X connect 3 0 6 0;
#X connect 14 0 7 0;
#X connect 15 0 0 0;
