#N canvas 390 144 973 487 10;
#X obj 525 147 mlorCtl;
#X obj 568 77 apcnome;
#X obj 569 106 midiout;
#X obj 602 30 notein;
#X obj 602 52 pack;
#X obj 547 239 route 0 1 2 3 4 5 6 7;
#X obj 114 178 throw~ output;
#X obj 122 242 catch~ output;
#X obj 123 291 dac~;
#X obj 353 61 mlor.row a;
#X obj 355 94 mlor.row b;
#X obj 356 126 mlor.row c;
#X obj 356 155 mlor.row d;
#X obj 356 185 mlor.row e;
#X obj 356 209 mlor.row f;
#X obj 356 238 mlor.row g;
#X obj 356 268 mlor.row h;
#X obj 519 173 route ledctl;
#X obj 634 96 route list;
#X obj 685 239 route 0 1 2 3 4 5 6 7;
#X obj 594 181 route playctl recctl;
#X obj 649 124 print;
#X obj 760 194 print;
#X obj 459 16 loadbang;
#X msg 459 38 /monome/grid/led/all 0;
#X connect 0 0 17 0;
#X connect 0 1 20 0;
#X connect 1 0 2 0;
#X connect 1 1 18 0;
#X connect 3 0 4 0;
#X connect 3 1 4 1;
#X connect 4 0 1 1;
#X connect 5 0 9 0;
#X connect 5 1 10 0;
#X connect 5 2 11 0;
#X connect 5 3 12 0;
#X connect 5 4 13 0;
#X connect 5 5 14 0;
#X connect 5 6 15 0;
#X connect 5 7 16 0;
#X connect 7 0 8 0;
#X connect 7 0 8 1;
#X connect 9 0 6 0;
#X connect 9 1 0 0;
#X connect 10 0 6 0;
#X connect 10 1 0 0;
#X connect 11 0 6 0;
#X connect 11 1 0 0;
#X connect 12 0 6 0;
#X connect 12 1 0 0;
#X connect 13 0 6 0;
#X connect 13 1 0 0;
#X connect 14 0 6 0;
#X connect 14 1 0 0;
#X connect 15 0 6 0;
#X connect 15 1 0 0;
#X connect 16 0 6 0;
#X connect 16 1 0 0;
#X connect 17 0 1 0;
#X connect 18 0 0 1;
#X connect 18 0 21 0;
#X connect 19 0 9 1;
#X connect 19 1 10 1;
#X connect 19 2 11 1;
#X connect 19 3 12 1;
#X connect 19 4 13 1;
#X connect 19 5 14 1;
#X connect 19 6 15 1;
#X connect 19 7 16 1;
#X connect 20 0 5 0;
#X connect 20 1 19 0;
#X connect 20 1 22 0;
#X connect 23 0 24 0;
#X connect 24 0 1 0;
