#N canvas 597 160 450 462 10;
#X obj 42 302 outlet~;
#X obj 164 308 outlet;
#X obj 114 86 inlet;
#X obj 82 174 jblr.play \$1;
#X obj 163 236 expr (floor($f1*8))+1;
#N canvas 954 334 726 596 snapshot~ 0;
#X obj 308 292 snapshot~;
#X obj 333 260 metro 50;
#X obj 308 164 inlet~;
#X obj 333 233 loadbang;
#X obj 308 321 outlet;
#X connect 0 0 4 0;
#X connect 1 0 0 0;
#X connect 2 0 0 0;
#X connect 3 0 1 0;
#X restore 163 216 pd snapshot~;
#X obj 163 258 change;
#X obj 163 280 list prepend \$1;
#X obj 227 120 adc~ 1;
#X obj 302 121 tgl 15 0 empty empty empty 17 7 0 10 -262144 -1 -1 0
1;
#X text 151 119 audio input;
#X text 324 120 record/stop;
#X text 318 164 record into buffer named "b";
#X obj 227 164 jblr.record \$1;
#X msg 50 120 stop;
#X obj 310 64 inlet;
#X obj 329 85 t b;
#X connect 2 0 3 0;
#X connect 3 0 0 0;
#X connect 3 1 5 0;
#X connect 4 0 6 0;
#X connect 5 0 4 0;
#X connect 6 0 7 0;
#X connect 7 0 1 0;
#X connect 8 0 13 0;
#X connect 9 0 13 1;
#X connect 14 0 3 0;
#X connect 15 0 16 0;
#X connect 16 0 9 0;
