#N canvas 602 273 450 300 10;
#X obj 126 47 f;
#X obj 152 150 mlorCtl;
#X obj 207 86 apcnome;
#X obj 197 186 print;
#X obj 241 29 midiin;
#X obj 325 34 notein;
#X obj 315 66 pack;
#X obj 215 110 route list;
#X connect 1 1 3 0;
#X connect 2 1 7 0;
#X connect 5 0 6 0;
#X connect 5 1 6 1;
#X connect 6 0 2 1;
#X connect 7 0 1 1;
