#N canvas 17 22 1608 893 10;
#X obj 256 101 inlet;
#X obj 501 179 receive \$1;
#X obj 559 507 outlet;
#X msg 165 239 nsub \$1 1 \$2;
#X obj 165 207 list prepend \$1;
#X obj 409 727 send check;
#X obj 502 216 route gate;
#X obj 409 280 spigot 1;
#X obj 408 505 list prepend \$1;
#X obj 256 127 t a a;
#X msg 532 418 1;
#X obj 941 492 unpack 0 0;
#X obj 914 466 t a a;
#X obj 964 521 !=;
#X obj 914 544 spigot;
#X text 1007 437 take 2nd and 3rd arguments of object;
#X text 1023 496 pass along if NOT equal to each other (filter "0 0"
when no arguments present);
#X obj 409 307 t a b;
#X obj 451 365 receive gather;
#X obj 452 391 t b b b;
#X obj 165 269 send current_state;
#X obj 914 436 pack \$2 \$3;
#X obj 409 604 list append min max;
#X obj 410 682 list append randomflag;
#X text 490 720 send [name of subpatch \, current value \, parameter
min \, paramtere mx \, randomize flag] to master check function.;
#X obj 540 656 pack \$4;
#X connect 0 0 9 0;
#X connect 1 0 6 0;
#X connect 3 0 20 0;
#X connect 4 0 3 0;
#X connect 6 0 7 1;
#X connect 6 1 2 0;
#X connect 7 0 17 0;
#X connect 8 0 22 0;
#X connect 9 0 4 0;
#X connect 9 1 7 0;
#X connect 10 0 7 1;
#X connect 11 0 13 0;
#X connect 11 1 13 1;
#X connect 12 0 14 0;
#X connect 12 1 11 0;
#X connect 13 0 14 1;
#X connect 14 0 22 1;
#X connect 17 0 8 0;
#X connect 17 1 21 0;
#X connect 17 1 25 0;
#X connect 18 0 19 0;
#X connect 19 0 2 0;
#X connect 19 1 21 0;
#X connect 19 2 10 0;
#X connect 21 0 12 0;
#X connect 22 0 23 0;
#X connect 23 0 5 0;
#X connect 25 0 23 1;
