#N canvas 189 143 1414 899 10;
#X obj 464 -13825 inlet;
#X msg 566 -13597 store \$2 \$1;
#X obj 464 -13521 coll dynamic-variables;
#C restore;
#X obj 566 -13624 list append \$1;
#X obj 465 -13479 outlet;
#X obj 464 -13624 list append \$1;
#X obj 464 -13784 route bang set;
#X obj 464 -13662 t b;
#X obj 464 -13599 route symbol;
#X obj 177 -13519 spigot \$2;
#X text 39 -13422 a non-zero 2nd argument allows input from any associated
var to be passsed to output without banging for it.;
#X text 39 -13439 auto-receive:;
#X obj 161 -13674 send;
#X msg 182 -13723 56734_\$1;
#X obj 182 -13812 loadbang;
#X obj 182 -13699 tosymbol;
#X obj 217 -13749 tosymbol;
#X msg 177 -13572 56734_\$1;
#X obj 177 -13597 tosymbol;
#X obj 177 -13545 rec 56734_\$1;
#X obj 489 -13712 t b a;
#X obj 182 -13784 symbol \$1;
#X connect 0 0 6 0;
#X connect 1 0 2 0;
#X connect 2 0 4 0;
#X connect 3 0 1 0;
#X connect 5 0 8 0;
#X connect 6 0 7 0;
#X connect 6 1 3 1;
#X connect 6 1 16 0;
#X connect 6 1 18 0;
#X connect 6 1 20 0;
#X connect 6 2 3 0;
#X connect 6 2 12 0;
#X connect 7 0 5 0;
#X connect 8 0 2 0;
#X connect 9 0 4 0;
#X connect 13 0 15 0;
#X connect 14 0 21 0;
#X connect 15 0 12 1;
#X connect 16 0 13 0;
#X connect 17 0 19 0;
#X connect 18 0 17 0;
#X connect 19 0 9 0;
#X connect 20 0 5 0;
#X connect 20 1 5 1;
#X connect 21 0 13 0;
